<svg width="16" height="20" viewBox="0 0 16 20" fill="none" xmlns="http://www.w3.org/2000/svg">
<path d="M8.00001 0.302734C5.33088 0.302734 3.15152 2.48209 3.15152 5.15122C3.15152 7.82035 5.33088 9.9997 8.00001 9.9997C10.6691 9.9997 12.8485 7.82035 12.8485 5.15122C12.8485 2.48209 10.6691 0.302734 8.00001 0.302734ZM8.00001 1.75728C9.88305 1.75728 11.3939 3.26818 11.3939 5.15122C11.3939 7.03426 9.88305 8.54516 8.00001 8.54516C6.11697 8.54516 4.60607 7.03426 4.60607 5.15122C4.60607 3.26818 6.11697 1.75728 8.00001 1.75728ZM2.17141 11.9391C1.11453 11.9391 0.242432 12.8112 0.242432 13.8681V14.6058C0.242432 16.3532 1.34753 17.705 2.81535 18.5149C4.28316 19.3247 6.14212 19.6967 8.00001 19.6967C9.8579 19.6967 11.7169 19.3247 13.1847 18.5149C14.4362 17.8244 15.3781 16.721 15.6421 15.333H15.7585V13.8681C15.7585 12.8112 14.8855 11.9391 13.8286 11.9391H2.17141ZM2.17141 13.3936H13.8286C14.0992 13.3936 14.304 13.5974 14.304 13.8681V13.8785H14.303V14.6058C14.303 15.7674 13.6506 16.5974 12.482 17.2421C11.3135 17.8868 9.65727 18.2421 8.00001 18.2421C6.34275 18.2421 4.68655 17.8868 3.518 17.2421C2.34945 16.5974 1.69698 15.7674 1.69698 14.6058V13.8681C1.69698 13.5974 1.90077 13.3936 2.17141 13.3936Z" fill="#176B61"/>
</svg>